# xmcd CD database file generated by OrangeCD 6.5
#
# Track frame offsets:
#	150
#	16772
#	33250
#	47897
#	59175
#	73112
#	95632
#	107702
#	122477
#	133855
#	150220
#	162360
#	176562
#	191657
#	203150
#	221847
#	231832
#	244982
#	258382
#	269307
#	290170
#	303100
#
# Disc length: 4510 seconds
#
# Revision: 0
# Processed by: cddbd v1.5.2PL0 Copyright (c) Steve Scherf et al.
# Submitted via: OrangeCD 6.5
#
DISCID=49119c16
DTITLE=Various Artist - Unplugged - Country Blue Melodies
DYEAR=1900
DGENRE=Country
TTITLE0=Child (Anak)
TTITLE1=Love Me Tender
TTITLE2=The World Is Getting Smaller
TTITLE3=Song Sung Blue
TTITLE4=500 Miles
TTITLE5=You Got A Friend
TTITLE6=Greenfield
TTITLE7=Crying In The Rain
TTITLE8=Take Me Home Country Road
TTITLE9=Blowing In The Wind
TTITLE10=California Dreaming
TTITLE11=Donna Donna
TTITLE12=Unchained Melody
TTITLE13=Follow Me
TTITLE14=Streets Of London
TTITLE15=Devoted To You
TTITLE16=House Of The Rising Sun
TTITLE17=Carry On Till Tomorrow
TTITLE18=Rain And Tears
TTITLE19=I Don't Want To Talk About It
TTITLE20=Gone The Rainbow
TTITLE21=American Pie
EXTD=
EXTT0=
EXTT1=
EXTT2=
EXTT3=
EXTT4=
EXTT5=
EXTT6=
EXTT7=
EXTT8=
EXTT9=
EXTT10=
EXTT11=
EXTT12=
EXTT13=
EXTT14=
EXTT15=
EXTT16=
EXTT17=
EXTT18=
EXTT19=
EXTT20=
EXTT21=
PLAYORDER=
